<svg xmlns="http://www.w3.org/2000/svg" viewBox="0 0 468.66 68.36"><defs><style>.cls-1{fill:#ffcf43;}</style></defs><g id="Layer_2" data-name="Layer 2"><g id="Layer_1-2" data-name="Layer 1"><path class="cls-1" d="M11.76,4.51,37.32,52.09C45,38.65,60.4,8.58,61.64,5.31l2.3-.8c.18,2.92,1.06,19.1,1.24,22.38l1.15,21.4c.35,6.63,1,11,1.5,11.5.8.88,1.15,1.06,5.84,1.94v2H51v-2l4.6-.71c2.56-.53,3-1.85,3-5.92,0-8.49-1.6-30.69-1.51-33.87H57C54.74,27,38.47,57.4,36.44,62.53L34,63.68c-.35-.8-3.89-7.79-10.61-20.7S13.18,23.7,12.29,21.23h-.17c-.18,3.89-1.51,29.53-1.51,33.16,0,5,.27,6.19,3.45,6.72l4.25.62v2H0v-2l3.27-.79c2-.54,2.3-.89,3-6.82.35-2.91.53-5.66.71-8.57L8.93,14.33c.36-5.75.45-7.87.45-9Z"/><path class="cls-1" d="M104.36,51.56c0,7.52,1.68,10.35,4.87,10.35a2.62,2.62,0,0,0,1.59-.36l.44,1.24A10.37,10.37,0,0,1,104.54,65c-4,0-5.93-1.41-7-3.71C94,63.68,90.57,65,84.64,65c-6.72,0-11.06-3.8-11.06-8.58,0-4.24,2-7.78,6.9-11.05,3.63-2.39,8.76-4.16,16.19-6.19V37.32c0-8-2.92-11-8.32-11-4.77,0-8,2.38-10.87,8.84h-.71a10.62,10.62,0,0,1-2.3-3.54c4.6-6,10.52-9.46,17.69-9.46,8.75,0,12.2,3.8,12.2,13.89Zm-7.69,6.72V43.34H95.52c-6.64,0-13.8,3.09-13.8,10.52,0,5,3.19,8,8.23,8A8.18,8.18,0,0,0,96.67,58.28Z"/><path class="cls-1" d="M121.87,27.86c3.63-4,6.73-5.75,9.64-5.75,1.68,0,3.54.62,6.72,2.65a15.88,15.88,0,0,1-4.51,5c-.79-.26-5.83-1.94-7.34-1.94a4,4,0,0,0-4.15,3.36V55.54c0,5.75,1.32,5.48,4.33,5.84l3.1.35v2H108.52v-2c1.24-.18,2.3-.26,3.09-.35,2.3-.36,2.92-1.15,2.92-5.93V36.17c0-7.25,0-9.46-2.47-9.46a11,11,0,0,0-2.92.79l-.71-2.12c4.51-1.68,11-3.36,12.82-3.27A23.26,23.26,0,0,1,121.87,27.86Z"/><path class="cls-1" d="M149.38,23.44v1.94l-3.27.62c-2.92.53-2.92,1.06-3,2.3a7.48,7.48,0,0,0,.26,1.77l7.88,24.23h.17l11.68-29.63a6.7,6.7,0,0,1,2.56-.79L177.77,54.3h.17l6.64-21.67a21.52,21.52,0,0,0,1-4.51c0-1.15-.26-1.59-3.45-2.12-.88-.18-2.12-.35-3.45-.62V23.44H195.9v1.94a25.49,25.49,0,0,0-2.92,1c-2,1-2.39,2.47-4.6,8.4l-10.52,28.3A8.6,8.6,0,0,1,174.67,65L162.56,35.2,151.32,63.06A7.79,7.79,0,0,1,147.88,65L135.05,28.83a3.91,3.91,0,0,0-3.27-2.92l-2.3-.53V23.44Z"/><path class="cls-1" d="M222.08,51.56c0,7.52,1.68,10.35,4.86,10.35a2.66,2.66,0,0,0,1.6-.36l.44,1.24A10.37,10.37,0,0,1,222.26,65c-4,0-5.93-1.41-7-3.71-3.54,2.39-7,3.71-12.91,3.71-6.72,0-11.06-3.8-11.06-8.58,0-4.24,1.95-7.78,6.9-11.05,3.63-2.39,8.76-4.16,16.18-6.19V37.32c0-8-2.91-11-8.31-11-4.77,0-8,2.38-10.88,8.84h-.7a10.47,10.47,0,0,1-2.3-3.54c4.6-6,10.52-9.46,17.68-9.46,8.76,0,12.21,3.8,12.21,13.89Zm-7.7,6.72V43.34h-1.14c-6.64,0-13.8,3.09-13.8,10.52,0,5,3.18,8,8.22,8A8.16,8.16,0,0,0,214.38,58.28Z"/><path class="cls-1" d="M239.41,27.5c4.69-4,8.67-5.39,13.89-5.39,5,0,8.4,1.24,10.61,3.63s3.36,6.72,3.36,13.53V55.45c0,3.54.53,4.51,1.15,5.13.8.71,2.3.89,4.87,1.15v2H253.56v-2c3.37-.35,4.34-.62,5-1.24s1.06-2.38,1.06-5V38.56c0-6.72-2.83-12.29-10.44-12.29-3.45,0-6.54,1.5-9.73,4.51V55.45c0,3.27.45,4.42,1.15,5.13s2.3.8,4.87,1.15v2H225.71v-2c3.45-.35,4.33-.62,4.95-1.24s1.06-2.38,1.06-5V13.35a51.63,51.63,0,0,0-.27-6.54c-.35-2.56-1.23-3.71-2.91-3.71a24.86,24.86,0,0,0-2.57.26l-.26-1.94a57.2,57.2,0,0,1,6-.89C235,.18,237.56,0,239.41,0Z"/><path class="cls-1" d="M310.7,29.45A157.73,157.73,0,0,0,322.28,41c4.51,4,8.4,7.43,11.68,10a14.66,14.66,0,0,0,2.65-8.14c0-8.13-5-14.41-13.09-16.62v-.8a18.58,18.58,0,0,1,6.81-1.77,11,11,0,0,1,8,4.07,15.44,15.44,0,0,1,3.63,10.44c0,5.66-1.51,10.08-5.49,15,5.66,4.69,7.87,10,7.87,15.21h-1.15a19,19,0,0,0-3.36-3.89,77.76,77.76,0,0,0-8-6.54C324.94,63.23,318.21,65,309.9,65a23.33,23.33,0,0,1-14.59-4.77,14.39,14.39,0,0,1-5.66-11.41c0-5.93,3.27-11.23,13.44-17.51a22.42,22.42,0,0,1-3-10.53,17.38,17.38,0,0,1,4.51-12.2A14.47,14.47,0,0,1,315,4c5.48,0,8.93,3.71,8.93,8.67C324,17.87,319.36,23.7,310.7,29.45Zm18.66,26.44c-8.14-6.36-16.63-12.64-24.85-22.28-4.87,2.83-6.72,6.63-6.72,11.58a14.42,14.42,0,0,0,4.95,11.32c3.27,2.92,7.6,4.34,12.91,4.34C321.66,60.85,326.79,58.64,329.36,55.89ZM317.77,14.77c0-4.33-2-7.87-5.66-7.87a6.07,6.07,0,0,0-4.69,2.56,9.74,9.74,0,0,0-2,6A20.5,20.5,0,0,0,309,27.15C314.5,24,317.77,19.63,317.77,14.77Z"/><path class="cls-1" d="M414.08,20.7l-2.38.53c-1.42-8-5.4-14.33-17.16-14.33-14.33,0-23.61,9.37-23.61,26.09,0,7.34,1.68,13.88,4.68,18.75,4,6.54,10.26,10.34,18.66,10.34,4.43,0,8.23-.88,10.71-2.38,4.95-3,6.36-6.81,8.93-13.62l2.39.53a49.17,49.17,0,0,1-3.63,15A48.78,48.78,0,0,1,394.45,65c-11.23,0-20.6-3.45-26.26-10.08-4.25-5-6.55-11.76-6.55-20.25,0-7.87,2.12-14.24,6-19.19C373.58,8,383.84,4,394.72,4c9.11,0,15.92,2.3,17.95,3.63A65.55,65.55,0,0,1,414.08,20.7Z"/><path class="cls-1" d="M454.24,56c-3.8,5.75-10.35,9-18,9-7.34,0-13.8-2.92-17.51-8A21.63,21.63,0,0,1,415,44.31a22.55,22.55,0,0,1,4.51-14.15,21.49,21.49,0,0,1,17.25-8c12.47,0,21.22,8.05,21.22,20.34A24.08,24.08,0,0,1,454.24,56Zm-4.42-11.14c0-5.57-1.06-10.26-3.19-13.62a12.37,12.37,0,0,0-11.14-6A10.59,10.59,0,0,0,425.85,31c-1.77,3.1-2.74,7.25-2.74,12.47a22.26,22.26,0,0,0,3.8,13.09,12.72,12.72,0,0,0,10.79,5.31C445.13,61.91,449.82,55.1,449.82,44.84Z"/><path class="cls-1" d="M464.06,65a4.64,4.64,0,0,1-4.69-4.6,4.65,4.65,0,1,1,9.29,0A4.63,4.63,0,0,1,464.06,65Z"/></g></g></svg>